<?xml version="1.0" encoding="utf-8" standalone="no"?>
<!DOCTYPE svg PUBLIC "-//W3C//DTD SVG 1.1//EN"
  "http://www.w3.org/Graphics/SVG/1.1/DTD/svg11.dtd">
<!-- Created with matplotlib (https://matplotlib.org/) -->
<svg height="288pt" version="1.1" viewBox="0 0 432 288" width="432pt" xmlns="http://www.w3.org/2000/svg" xmlns:xlink="http://www.w3.org/1999/xlink">
 <metadata>
  <rdf:RDF xmlns:cc="http://creativecommons.org/ns#" xmlns:dc="http://purl.org/dc/elements/1.1/" xmlns:rdf="http://www.w3.org/1999/02/22-rdf-syntax-ns#">
   <cc:Work>
    <dc:type rdf:resource="http://purl.org/dc/dcmitype/StillImage"/>
    <dc:date>2022-03-15T16:31:13.895663</dc:date>
    <dc:format>image/svg+xml</dc:format>
    <dc:creator>
     <cc:Agent>
      <dc:title>Matplotlib v3.3.4, https://matplotlib.org/</dc:title>
     </cc:Agent>
    </dc:creator>
   </cc:Work>
  </rdf:RDF>
 </metadata>
 <defs>
  <style type="text/css">*{stroke-linecap:butt;stroke-linejoin:round;}</style>
 </defs>
 <g id="figure_1">
  <g id="patch_1">
   <path d="M 0 288 
L 432 288 
L 432 0 
L 0 0 
z
" style="fill:none;"/>
  </g>
  <g id="axes_1">
   <g id="patch_2">
    <path d="M 54 252 
L 388.8 252 
L 388.8 34.56 
L 54 34.56 
z
" style="fill:#ffffff;"/>
   </g>
   <g id="matplotlib.axis_1">
    <g id="xtick_1">
     <g id="line2d_1">
      <defs>
       <path d="M 0 0 
L 0 3.5 
" id="m8006360f56" style="stroke:#000000;stroke-width:0.8;"/>
      </defs>
      <g>
       <use style="stroke:#000000;stroke-width:0.8;" x="69.218182" xlink:href="#m8006360f56" y="252"/>
      </g>
     </g>
     <g id="text_1">
      <!-- 0 -->
      <g transform="translate(66.036932 266.598437)scale(0.1 -0.1)">
       <defs>
        <path d="M 31.78125 66.40625 
Q 24.171875 66.40625 20.328125 58.90625 
Q 16.5 51.421875 16.5 36.375 
Q 16.5 21.390625 20.328125 13.890625 
Q 24.171875 6.390625 31.78125 6.390625 
Q 39.453125 6.390625 43.28125 13.890625 
Q 47.125 21.390625 47.125 36.375 
Q 47.125 51.421875 43.28125 58.90625 
Q 39.453125 66.40625 31.78125 66.40625 
z
M 31.78125 74.21875 
Q 44.046875 74.21875 50.515625 64.515625 
Q 56.984375 54.828125 56.984375 36.375 
Q 56.984375 17.96875 50.515625 8.265625 
Q 44.046875 -1.421875 31.78125 -1.421875 
Q 19.53125 -1.421875 13.0625 8.265625 
Q 6.59375 17.96875 6.59375 36.375 
Q 6.59375 54.828125 13.0625 64.515625 
Q 19.53125 74.21875 31.78125 74.21875 
z
" id="DejaVuSans-48"/>
       </defs>
       <use xlink:href="#DejaVuSans-48"/>
      </g>
     </g>
    </g>
    <g id="xtick_2">
     <g id="line2d_2">
      <g>
       <use style="stroke:#000000;stroke-width:0.8;" x="132.629915" xlink:href="#m8006360f56" y="252"/>
      </g>
     </g>
     <g id="text_2">
      <!-- 5000 -->
      <g transform="translate(119.904915 266.598437)scale(0.1 -0.1)">
       <defs>
        <path d="M 10.796875 72.90625 
L 49.515625 72.90625 
L 49.515625 64.59375 
L 19.828125 64.59375 
L 19.828125 46.734375 
Q 21.96875 47.46875 24.109375 47.828125 
Q 26.265625 48.1875 28.421875 48.1875 
Q 40.625 48.1875 47.75 41.5 
Q 54.890625 34.8125 54.890625 23.390625 
Q 54.890625 11.625 47.5625 5.09375 
Q 40.234375 -1.421875 26.90625 -1.421875 
Q 22.3125 -1.421875 17.546875 -0.640625 
Q 12.796875 0.140625 7.71875 1.703125 
L 7.71875 11.625 
Q 12.109375 9.234375 16.796875 8.0625 
Q 21.484375 6.890625 26.703125 6.890625 
Q 35.15625 6.890625 40.078125 11.328125 
Q 45.015625 15.765625 45.015625 23.390625 
Q 45.015625 31 40.078125 35.4375 
Q 35.15625 39.890625 26.703125 39.890625 
Q 22.75 39.890625 18.8125 39.015625 
Q 14.890625 38.140625 10.796875 36.28125 
z
" id="DejaVuSans-53"/>
       </defs>
       <use xlink:href="#DejaVuSans-53"/>
       <use x="63.623047" xlink:href="#DejaVuSans-48"/>
       <use x="127.246094" xlink:href="#DejaVuSans-48"/>
       <use x="190.869141" xlink:href="#DejaVuSans-48"/>
      </g>
     </g>
    </g>
    <g id="xtick_3">
     <g id="line2d_3">
      <g>
       <use style="stroke:#000000;stroke-width:0.8;" x="196.041648" xlink:href="#m8006360f56" y="252"/>
      </g>
     </g>
     <g id="text_3">
      <!-- 10000 -->
      <g transform="translate(180.135398 266.598437)scale(0.1 -0.1)">
       <defs>
        <path d="M 12.40625 8.296875 
L 28.515625 8.296875 
L 28.515625 63.921875 
L 10.984375 60.40625 
L 10.984375 69.390625 
L 28.421875 72.90625 
L 38.28125 72.90625 
L 38.28125 8.296875 
L 54.390625 8.296875 
L 54.390625 0 
L 12.40625 0 
z
" id="DejaVuSans-49"/>
       </defs>
       <use xlink:href="#DejaVuSans-49"/>
       <use x="63.623047" xlink:href="#DejaVuSans-48"/>
       <use x="127.246094" xlink:href="#DejaVuSans-48"/>
       <use x="190.869141" xlink:href="#DejaVuSans-48"/>
       <use x="254.492188" xlink:href="#DejaVuSans-48"/>
      </g>
     </g>
    </g>
    <g id="xtick_4">
     <g id="line2d_4">
      <g>
       <use style="stroke:#000000;stroke-width:0.8;" x="259.453381" xlink:href="#m8006360f56" y="252"/>
      </g>
     </g>
     <g id="text_4">
      <!-- 15000 -->
      <g transform="translate(243.547131 266.598437)scale(0.1 -0.1)">
       <use xlink:href="#DejaVuSans-49"/>
       <use x="63.623047" xlink:href="#DejaVuSans-53"/>
       <use x="127.246094" xlink:href="#DejaVuSans-48"/>
       <use x="190.869141" xlink:href="#DejaVuSans-48"/>
       <use x="254.492188" xlink:href="#DejaVuSans-48"/>
      </g>
     </g>
    </g>
    <g id="xtick_5">
     <g id="line2d_5">
      <g>
       <use style="stroke:#000000;stroke-width:0.8;" x="322.865114" xlink:href="#m8006360f56" y="252"/>
      </g>
     </g>
     <g id="text_5">
      <!-- 20000 -->
      <g transform="translate(306.958864 266.598437)scale(0.1 -0.1)">
       <defs>
        <path d="M 19.1875 8.296875 
L 53.609375 8.296875 
L 53.609375 0 
L 7.328125 0 
L 7.328125 8.296875 
Q 12.9375 14.109375 22.625 23.890625 
Q 32.328125 33.6875 34.8125 36.53125 
Q 39.546875 41.84375 41.421875 45.53125 
Q 43.3125 49.21875 43.3125 52.78125 
Q 43.3125 58.59375 39.234375 62.25 
Q 35.15625 65.921875 28.609375 65.921875 
Q 23.96875 65.921875 18.8125 64.3125 
Q 13.671875 62.703125 7.8125 59.421875 
L 7.8125 69.390625 
Q 13.765625 71.78125 18.9375 73 
Q 24.125 74.21875 28.421875 74.21875 
Q 39.75 74.21875 46.484375 68.546875 
Q 53.21875 62.890625 53.21875 53.421875 
Q 53.21875 48.921875 51.53125 44.890625 
Q 49.859375 40.875 45.40625 35.40625 
Q 44.1875 33.984375 37.640625 27.21875 
Q 31.109375 20.453125 19.1875 8.296875 
z
" id="DejaVuSans-50"/>
       </defs>
       <use xlink:href="#DejaVuSans-50"/>
       <use x="63.623047" xlink:href="#DejaVuSans-48"/>
       <use x="127.246094" xlink:href="#DejaVuSans-48"/>
       <use x="190.869141" xlink:href="#DejaVuSans-48"/>
       <use x="254.492188" xlink:href="#DejaVuSans-48"/>
      </g>
     </g>
    </g>
    <g id="xtick_6">
     <g id="line2d_6">
      <g>
       <use style="stroke:#000000;stroke-width:0.8;" x="386.276847" xlink:href="#m8006360f56" y="252"/>
      </g>
     </g>
     <g id="text_6">
      <!-- 25000 -->
      <g transform="translate(370.370597 266.598437)scale(0.1 -0.1)">
       <use xlink:href="#DejaVuSans-50"/>
       <use x="63.623047" xlink:href="#DejaVuSans-53"/>
       <use x="127.246094" xlink:href="#DejaVuSans-48"/>
       <use x="190.869141" xlink:href="#DejaVuSans-48"/>
       <use x="254.492188" xlink:href="#DejaVuSans-48"/>
      </g>
     </g>
    </g>
    <g id="text_7">
     <!-- Point Index -->
     <g transform="translate(193.633594 280.276563)scale(0.1 -0.1)">
      <defs>
       <path d="M 19.671875 64.796875 
L 19.671875 37.40625 
L 32.078125 37.40625 
Q 38.96875 37.40625 42.71875 40.96875 
Q 46.484375 44.53125 46.484375 51.125 
Q 46.484375 57.671875 42.71875 61.234375 
Q 38.96875 64.796875 32.078125 64.796875 
z
M 9.8125 72.90625 
L 32.078125 72.90625 
Q 44.34375 72.90625 50.609375 67.359375 
Q 56.890625 61.8125 56.890625 51.125 
Q 56.890625 40.328125 50.609375 34.8125 
Q 44.34375 29.296875 32.078125 29.296875 
L 19.671875 29.296875 
L 19.671875 0 
L 9.8125 0 
z
" id="DejaVuSans-80"/>
       <path d="M 30.609375 48.390625 
Q 23.390625 48.390625 19.1875 42.75 
Q 14.984375 37.109375 14.984375 27.296875 
Q 14.984375 17.484375 19.15625 11.84375 
Q 23.34375 6.203125 30.609375 6.203125 
Q 37.796875 6.203125 41.984375 11.859375 
Q 46.1875 17.53125 46.1875 27.296875 
Q 46.1875 37.015625 41.984375 42.703125 
Q 37.796875 48.390625 30.609375 48.390625 
z
M 30.609375 56 
Q 42.328125 56 49.015625 48.375 
Q 55.71875 40.765625 55.71875 27.296875 
Q 55.71875 13.875 49.015625 6.21875 
Q 42.328125 -1.421875 30.609375 -1.421875 
Q 18.84375 -1.421875 12.171875 6.21875 
Q 5.515625 13.875 5.515625 27.296875 
Q 5.515625 40.765625 12.171875 48.375 
Q 18.84375 56 30.609375 56 
z
" id="DejaVuSans-111"/>
       <path d="M 9.421875 54.6875 
L 18.40625 54.6875 
L 18.40625 0 
L 9.421875 0 
z
M 9.421875 75.984375 
L 18.40625 75.984375 
L 18.40625 64.59375 
L 9.421875 64.59375 
z
" id="DejaVuSans-105"/>
       <path d="M 54.890625 33.015625 
L 54.890625 0 
L 45.90625 0 
L 45.90625 32.71875 
Q 45.90625 40.484375 42.875 44.328125 
Q 39.84375 48.1875 33.796875 48.1875 
Q 26.515625 48.1875 22.3125 43.546875 
Q 18.109375 38.921875 18.109375 30.90625 
L 18.109375 0 
L 9.078125 0 
L 9.078125 54.6875 
L 18.109375 54.6875 
L 18.109375 46.1875 
Q 21.34375 51.125 25.703125 53.5625 
Q 30.078125 56 35.796875 56 
Q 45.21875 56 50.046875 50.171875 
Q 54.890625 44.34375 54.890625 33.015625 
z
" id="DejaVuSans-110"/>
       <path d="M 18.3125 70.21875 
L 18.3125 54.6875 
L 36.8125 54.6875 
L 36.8125 47.703125 
L 18.3125 47.703125 
L 18.3125 18.015625 
Q 18.3125 11.328125 20.140625 9.421875 
Q 21.96875 7.515625 27.59375 7.515625 
L 36.8125 7.515625 
L 36.8125 0 
L 27.59375 0 
Q 17.1875 0 13.234375 3.875 
Q 9.28125 7.765625 9.28125 18.015625 
L 9.28125 47.703125 
L 2.6875 47.703125 
L 2.6875 54.6875 
L 9.28125 54.6875 
L 9.28125 70.21875 
z
" id="DejaVuSans-116"/>
       <path id="DejaVuSans-32"/>
       <path d="M 9.8125 72.90625 
L 19.671875 72.90625 
L 19.671875 0 
L 9.8125 0 
z
" id="DejaVuSans-73"/>
       <path d="M 45.40625 46.390625 
L 45.40625 75.984375 
L 54.390625 75.984375 
L 54.390625 0 
L 45.40625 0 
L 45.40625 8.203125 
Q 42.578125 3.328125 38.25 0.953125 
Q 33.9375 -1.421875 27.875 -1.421875 
Q 17.96875 -1.421875 11.734375 6.484375 
Q 5.515625 14.40625 5.515625 27.296875 
Q 5.515625 40.1875 11.734375 48.09375 
Q 17.96875 56 27.875 56 
Q 33.9375 56 38.25 53.625 
Q 42.578125 51.265625 45.40625 46.390625 
z
M 14.796875 27.296875 
Q 14.796875 17.390625 18.875 11.75 
Q 22.953125 6.109375 30.078125 6.109375 
Q 37.203125 6.109375 41.296875 11.75 
Q 45.40625 17.390625 45.40625 27.296875 
Q 45.40625 37.203125 41.296875 42.84375 
Q 37.203125 48.484375 30.078125 48.484375 
Q 22.953125 48.484375 18.875 42.84375 
Q 14.796875 37.203125 14.796875 27.296875 
z
" id="DejaVuSans-100"/>
       <path d="M 56.203125 29.59375 
L 56.203125 25.203125 
L 14.890625 25.203125 
Q 15.484375 15.921875 20.484375 11.0625 
Q 25.484375 6.203125 34.421875 6.203125 
Q 39.59375 6.203125 44.453125 7.46875 
Q 49.3125 8.734375 54.109375 11.28125 
L 54.109375 2.78125 
Q 49.265625 0.734375 44.1875 -0.34375 
Q 39.109375 -1.421875 33.890625 -1.421875 
Q 20.796875 -1.421875 13.15625 6.1875 
Q 5.515625 13.8125 5.515625 26.8125 
Q 5.515625 40.234375 12.765625 48.109375 
Q 20.015625 56 32.328125 56 
Q 43.359375 56 49.78125 48.890625 
Q 56.203125 41.796875 56.203125 29.59375 
z
M 47.21875 32.234375 
Q 47.125 39.59375 43.09375 43.984375 
Q 39.0625 48.390625 32.421875 48.390625 
Q 24.90625 48.390625 20.390625 44.140625 
Q 15.875 39.890625 15.1875 32.171875 
z
" id="DejaVuSans-101"/>
       <path d="M 54.890625 54.6875 
L 35.109375 28.078125 
L 55.90625 0 
L 45.3125 0 
L 29.390625 21.484375 
L 13.484375 0 
L 2.875 0 
L 24.125 28.609375 
L 4.6875 54.6875 
L 15.28125 54.6875 
L 29.78125 35.203125 
L 44.28125 54.6875 
z
" id="DejaVuSans-120"/>
      </defs>
      <use xlink:href="#DejaVuSans-80"/>
      <use x="56.677734" xlink:href="#DejaVuSans-111"/>
      <use x="117.859375" xlink:href="#DejaVuSans-105"/>
      <use x="145.642578" xlink:href="#DejaVuSans-110"/>
      <use x="209.021484" xlink:href="#DejaVuSans-116"/>
      <use x="248.230469" xlink:href="#DejaVuSans-32"/>
      <use x="280.017578" xlink:href="#DejaVuSans-73"/>
      <use x="309.509766" xlink:href="#DejaVuSans-110"/>
      <use x="372.888672" xlink:href="#DejaVuSans-100"/>
      <use x="436.365234" xlink:href="#DejaVuSans-101"/>
      <use x="496.138672" xlink:href="#DejaVuSans-120"/>
     </g>
    </g>
   </g>
   <g id="matplotlib.axis_2">
    <g id="ytick_1">
     <g id="line2d_7">
      <defs>
       <path d="M 0 0 
L -3.5 0 
" id="m4a7b89efdd" style="stroke:#000000;stroke-width:0.8;"/>
      </defs>
      <g>
       <use style="stroke:#000000;stroke-width:0.8;" x="54" xlink:href="#m4a7b89efdd" y="248.74539"/>
      </g>
     </g>
     <g id="text_8">
      <!-- 1 -->
      <g transform="translate(40.6375 252.544608)scale(0.1 -0.1)">
       <use xlink:href="#DejaVuSans-49"/>
      </g>
     </g>
    </g>
    <g id="ytick_2">
     <g id="line2d_8">
      <g>
       <use style="stroke:#000000;stroke-width:0.8;" x="54" xlink:href="#m4a7b89efdd" y="213.899177"/>
      </g>
     </g>
     <g id="text_9">
      <!-- 2 -->
      <g transform="translate(40.6375 217.698396)scale(0.1 -0.1)">
       <use xlink:href="#DejaVuSans-50"/>
      </g>
     </g>
    </g>
    <g id="ytick_3">
     <g id="line2d_9">
      <g>
       <use style="stroke:#000000;stroke-width:0.8;" x="54" xlink:href="#m4a7b89efdd" y="179.052965"/>
      </g>
     </g>
     <g id="text_10">
      <!-- 3 -->
      <g transform="translate(40.6375 182.852184)scale(0.1 -0.1)">
       <defs>
        <path d="M 40.578125 39.3125 
Q 47.65625 37.796875 51.625 33 
Q 55.609375 28.21875 55.609375 21.1875 
Q 55.609375 10.40625 48.1875 4.484375 
Q 40.765625 -1.421875 27.09375 -1.421875 
Q 22.515625 -1.421875 17.65625 -0.515625 
Q 12.796875 0.390625 7.625 2.203125 
L 7.625 11.71875 
Q 11.71875 9.328125 16.59375 8.109375 
Q 21.484375 6.890625 26.8125 6.890625 
Q 36.078125 6.890625 40.9375 10.546875 
Q 45.796875 14.203125 45.796875 21.1875 
Q 45.796875 27.640625 41.28125 31.265625 
Q 36.765625 34.90625 28.71875 34.90625 
L 20.21875 34.90625 
L 20.21875 43.015625 
L 29.109375 43.015625 
Q 36.375 43.015625 40.234375 45.921875 
Q 44.09375 48.828125 44.09375 54.296875 
Q 44.09375 59.90625 40.109375 62.90625 
Q 36.140625 65.921875 28.71875 65.921875 
Q 24.65625 65.921875 20.015625 65.03125 
Q 15.375 64.15625 9.8125 62.3125 
L 9.8125 71.09375 
Q 15.4375 72.65625 20.34375 73.4375 
Q 25.25 74.21875 29.59375 74.21875 
Q 40.828125 74.21875 47.359375 69.109375 
Q 53.90625 64.015625 53.90625 55.328125 
Q 53.90625 49.265625 50.4375 45.09375 
Q 46.96875 40.921875 40.578125 39.3125 
z
" id="DejaVuSans-51"/>
       </defs>
       <use xlink:href="#DejaVuSans-51"/>
      </g>
     </g>
    </g>
    <g id="ytick_4">
     <g id="line2d_10">
      <g>
       <use style="stroke:#000000;stroke-width:0.8;" x="54" xlink:href="#m4a7b89efdd" y="144.206753"/>
      </g>
     </g>
     <g id="text_11">
      <!-- 4 -->
      <g transform="translate(40.6375 148.005972)scale(0.1 -0.1)">
       <defs>
        <path d="M 37.796875 64.3125 
L 12.890625 25.390625 
L 37.796875 25.390625 
z
M 35.203125 72.90625 
L 47.609375 72.90625 
L 47.609375 25.390625 
L 58.015625 25.390625 
L 58.015625 17.1875 
L 47.609375 17.1875 
L 47.609375 0 
L 37.796875 0 
L 37.796875 17.1875 
L 4.890625 17.1875 
L 4.890625 26.703125 
z
" id="DejaVuSans-52"/>
       </defs>
       <use xlink:href="#DejaVuSans-52"/>
      </g>
     </g>
    </g>
    <g id="ytick_5">
     <g id="line2d_11">
      <g>
       <use style="stroke:#000000;stroke-width:0.8;" x="54" xlink:href="#m4a7b89efdd" y="109.360541"/>
      </g>
     </g>
     <g id="text_12">
      <!-- 5 -->
      <g transform="translate(40.6375 113.15976)scale(0.1 -0.1)">
       <use xlink:href="#DejaVuSans-53"/>
      </g>
     </g>
    </g>
    <g id="ytick_6">
     <g id="line2d_12">
      <g>
       <use style="stroke:#000000;stroke-width:0.8;" x="54" xlink:href="#m4a7b89efdd" y="74.514329"/>
      </g>
     </g>
     <g id="text_13">
      <!-- 6 -->
      <g transform="translate(40.6375 78.313547)scale(0.1 -0.1)">
       <defs>
        <path d="M 33.015625 40.375 
Q 26.375 40.375 22.484375 35.828125 
Q 18.609375 31.296875 18.609375 23.390625 
Q 18.609375 15.53125 22.484375 10.953125 
Q 26.375 6.390625 33.015625 6.390625 
Q 39.65625 6.390625 43.53125 10.953125 
Q 47.40625 15.53125 47.40625 23.390625 
Q 47.40625 31.296875 43.53125 35.828125 
Q 39.65625 40.375 33.015625 40.375 
z
M 52.59375 71.296875 
L 52.59375 62.3125 
Q 48.875 64.0625 45.09375 64.984375 
Q 41.3125 65.921875 37.59375 65.921875 
Q 27.828125 65.921875 22.671875 59.328125 
Q 17.53125 52.734375 16.796875 39.40625 
Q 19.671875 43.65625 24.015625 45.921875 
Q 28.375 48.1875 33.59375 48.1875 
Q 44.578125 48.1875 50.953125 41.515625 
Q 57.328125 34.859375 57.328125 23.390625 
Q 57.328125 12.15625 50.6875 5.359375 
Q 44.046875 -1.421875 33.015625 -1.421875 
Q 20.359375 -1.421875 13.671875 8.265625 
Q 6.984375 17.96875 6.984375 36.375 
Q 6.984375 53.65625 15.1875 63.9375 
Q 23.390625 74.21875 37.203125 74.21875 
Q 40.921875 74.21875 44.703125 73.484375 
Q 48.484375 72.75 52.59375 71.296875 
z
" id="DejaVuSans-54"/>
       </defs>
       <use xlink:href="#DejaVuSans-54"/>
      </g>
     </g>
    </g>
    <g id="ytick_7">
     <g id="line2d_13">
      <g>
       <use style="stroke:#000000;stroke-width:0.8;" x="54" xlink:href="#m4a7b89efdd" y="39.668116"/>
      </g>
     </g>
     <g id="text_14">
      <!-- 7 -->
      <g transform="translate(40.6375 43.467335)scale(0.1 -0.1)">
       <defs>
        <path d="M 8.203125 72.90625 
L 55.078125 72.90625 
L 55.078125 68.703125 
L 28.609375 0 
L 18.3125 0 
L 43.21875 64.59375 
L 8.203125 64.59375 
z
" id="DejaVuSans-55"/>
       </defs>
       <use xlink:href="#DejaVuSans-55"/>
      </g>
     </g>
    </g>
    <g id="text_15">
     <!-- Distance -->
     <g transform="translate(34.557812 165.1425)rotate(-90)scale(0.1 -0.1)">
      <defs>
       <path d="M 19.671875 64.796875 
L 19.671875 8.109375 
L 31.59375 8.109375 
Q 46.6875 8.109375 53.6875 14.9375 
Q 60.6875 21.78125 60.6875 36.53125 
Q 60.6875 51.171875 53.6875 57.984375 
Q 46.6875 64.796875 31.59375 64.796875 
z
M 9.8125 72.90625 
L 30.078125 72.90625 
Q 51.265625 72.90625 61.171875 64.09375 
Q 71.09375 55.28125 71.09375 36.53125 
Q 71.09375 17.671875 61.125 8.828125 
Q 51.171875 0 30.078125 0 
L 9.8125 0 
z
" id="DejaVuSans-68"/>
       <path d="M 44.28125 53.078125 
L 44.28125 44.578125 
Q 40.484375 46.53125 36.375 47.5 
Q 32.28125 48.484375 27.875 48.484375 
Q 21.1875 48.484375 17.84375 46.4375 
Q 14.5 44.390625 14.5 40.28125 
Q 14.5 37.15625 16.890625 35.375 
Q 19.28125 33.59375 26.515625 31.984375 
L 29.59375 31.296875 
Q 39.15625 29.25 43.1875 25.515625 
Q 47.21875 21.78125 47.21875 15.09375 
Q 47.21875 7.46875 41.1875 3.015625 
Q 35.15625 -1.421875 24.609375 -1.421875 
Q 20.21875 -1.421875 15.453125 -0.5625 
Q 10.6875 0.296875 5.421875 2 
L 5.421875 11.28125 
Q 10.40625 8.6875 15.234375 7.390625 
Q 20.0625 6.109375 24.8125 6.109375 
Q 31.15625 6.109375 34.5625 8.28125 
Q 37.984375 10.453125 37.984375 14.40625 
Q 37.984375 18.0625 35.515625 20.015625 
Q 33.0625 21.96875 24.703125 23.78125 
L 21.578125 24.515625 
Q 13.234375 26.265625 9.515625 29.90625 
Q 5.8125 33.546875 5.8125 39.890625 
Q 5.8125 47.609375 11.28125 51.796875 
Q 16.75 56 26.8125 56 
Q 31.78125 56 36.171875 55.265625 
Q 40.578125 54.546875 44.28125 53.078125 
z
" id="DejaVuSans-115"/>
       <path d="M 34.28125 27.484375 
Q 23.390625 27.484375 19.1875 25 
Q 14.984375 22.515625 14.984375 16.5 
Q 14.984375 11.71875 18.140625 8.90625 
Q 21.296875 6.109375 26.703125 6.109375 
Q 34.1875 6.109375 38.703125 11.40625 
Q 43.21875 16.703125 43.21875 25.484375 
L 43.21875 27.484375 
z
M 52.203125 31.203125 
L 52.203125 0 
L 43.21875 0 
L 43.21875 8.296875 
Q 40.140625 3.328125 35.546875 0.953125 
Q 30.953125 -1.421875 24.3125 -1.421875 
Q 15.921875 -1.421875 10.953125 3.296875 
Q 6 8.015625 6 15.921875 
Q 6 25.140625 12.171875 29.828125 
Q 18.359375 34.515625 30.609375 34.515625 
L 43.21875 34.515625 
L 43.21875 35.40625 
Q 43.21875 41.609375 39.140625 45 
Q 35.0625 48.390625 27.6875 48.390625 
Q 23 48.390625 18.546875 47.265625 
Q 14.109375 46.140625 10.015625 43.890625 
L 10.015625 52.203125 
Q 14.9375 54.109375 19.578125 55.046875 
Q 24.21875 56 28.609375 56 
Q 40.484375 56 46.34375 49.84375 
Q 52.203125 43.703125 52.203125 31.203125 
z
" id="DejaVuSans-97"/>
       <path d="M 48.78125 52.59375 
L 48.78125 44.1875 
Q 44.96875 46.296875 41.140625 47.34375 
Q 37.3125 48.390625 33.40625 48.390625 
Q 24.65625 48.390625 19.8125 42.84375 
Q 14.984375 37.3125 14.984375 27.296875 
Q 14.984375 17.28125 19.8125 11.734375 
Q 24.65625 6.203125 33.40625 6.203125 
Q 37.3125 6.203125 41.140625 7.25 
Q 44.96875 8.296875 48.78125 10.40625 
L 48.78125 2.09375 
Q 45.015625 0.34375 40.984375 -0.53125 
Q 36.96875 -1.421875 32.421875 -1.421875 
Q 20.0625 -1.421875 12.78125 6.34375 
Q 5.515625 14.109375 5.515625 27.296875 
Q 5.515625 40.671875 12.859375 48.328125 
Q 20.21875 56 33.015625 56 
Q 37.15625 56 41.109375 55.140625 
Q 45.0625 54.296875 48.78125 52.59375 
z
" id="DejaVuSans-99"/>
      </defs>
      <use xlink:href="#DejaVuSans-68"/>
      <use x="77.001953" xlink:href="#DejaVuSans-105"/>
      <use x="104.785156" xlink:href="#DejaVuSans-115"/>
      <use x="156.884766" xlink:href="#DejaVuSans-116"/>
      <use x="196.09375" xlink:href="#DejaVuSans-97"/>
      <use x="257.373047" xlink:href="#DejaVuSans-110"/>
      <use x="320.751953" xlink:href="#DejaVuSans-99"/>
      <use x="375.732422" xlink:href="#DejaVuSans-101"/>
     </g>
    </g>
   </g>
   <g id="line2d_14">
    <path clip-path="url(#pb1c95f3584)" d="M 69.218182 242.116364 
L 69.509876 242.116364 
L 69.624017 237.892698 
L 69.738158 237.892698 
L 69.852299 236.457449 
L 69.96644 236.457449 
L 70.080581 235.527977 
L 70.169358 235.527977 
L 70.283499 234.746644 
L 70.39764 234.625866 
L 70.435687 234.625866 
L 70.549828 234.411671 
L 70.638605 234.411671 
L 70.752746 233.735088 
L 70.803475 233.735088 
L 70.942981 231.024061 
L 71.069804 231.024061 
L 71.183946 230.732478 
L 71.336134 230.666423 
L 71.462957 230.33145 
L 71.805381 230.254062 
L 71.970251 229.165117 
L 72.046345 229.165117 
L 72.160486 228.208284 
L 72.211216 228.196951 
L 72.338039 227.663812 
L 72.414133 227.663812 
L 72.528274 227.344868 
L 72.845333 227.251451 
L 73.010203 226.959868 
L 73.035568 226.959868 
L 73.187756 226.415396 
L 73.200439 226.415396 
L 73.31458 226.189868 
L 73.466768 226.135146 
L 73.593591 225.684091 
L 73.74578 225.618035 
L 73.872603 225.524618 
L 73.948697 225.485924 
L 74.075521 225.326452 
L 74.100885 225.287757 
L 74.227709 225.16698 
L 74.367215 225.073563 
L 74.50672 224.820674 
L 74.532085 224.820674 
L 74.646226 224.463035 
L 74.785732 224.369619 
L 75.014014 224.11673 
L 75.102791 224.023313 
L 75.229614 223.957258 
L 75.483261 223.891202 
L 75.610085 223.825147 
L 75.622767 223.825147 
L 75.74959 223.412786 
L 75.787637 223.412786 
L 75.901778 223.225952 
L 76.053967 223.121202 
L 76.18079 223.039119 
L 76.294931 223.000425 
L 76.421755 222.802258 
L 76.535896 222.774897 
L 76.662719 222.588064 
L 76.764178 222.549369 
L 76.891002 222.389897 
L 76.903684 222.389897 
L 77.030507 222.137008 
L 77.246107 222.070953 
L 77.360248 221.902017 
L 77.550484 221.818064 
L 77.880225 221.752008 
L 78.007048 221.658592 
L 78.23533 221.565175 
L 78.362154 221.405703 
L 78.577754 221.339647 
L 78.691895 221.246231 
L 79.034318 221.180175 
L 79.161142 221.086759 
L 79.465518 220.982009 
L 79.643071 220.861231 
L 79.807941 220.767814 
L 79.960129 220.635703 
L 80.175729 220.542287 
L 80.327917 220.426765 
L 80.480106 220.382814 
L 80.606929 220.223342 
L 80.7718 220.157287 
L 80.898623 220.06387 
L 81.050811 219.931759 
L 81.190317 219.865703 
L 81.31714 219.772287 
L 81.494693 219.67887 
L 81.621517 219.585453 
L 82.01467 219.492037 
L 82.154175 219.387287 
L 82.407822 219.29387 
L 82.534646 219.200454 
L 82.724881 219.134398 
L 82.864387 218.974926 
L 82.953163 218.90887 
L 83.079987 218.815454 
L 83.435092 218.722037 
L 83.561916 218.62862 
L 83.777516 218.562565 
L 83.904339 218.496509 
L 84.145304 218.403093 
L 84.272127 218.270982 
L 84.500409 218.177565 
L 84.614551 218.111509 
L 84.817468 218.018093 
L 84.944292 217.924676 
L 85.134527 217.822845 
L 85.438903 217.668889 
L 85.489633 217.633093 
L 85.616456 217.505209 
L 85.69255 217.443361 
L 85.832056 217.314149 
L 85.971562 217.209679 
L 86.212526 217.06126 
L 86.364714 216.995204 
L 86.50422 216.787575 
L 86.846644 216.357316 
L 87.087608 216.034164 
L 87.239796 215.931003 
L 87.518808 215.602335 
L 87.632949 215.500744 
L 87.810502 215.218905 
L 87.96269 215.111537 
L 88.229019 214.963118 
L 88.279749 214.881802 
L 88.419255 214.813129 
L 88.533396 214.718383 
L 88.660219 214.542342 
L 88.761678 214.436544 
L 88.939231 214.279709 
L 89.078737 214.183655 
L 89.230925 213.936022 
L 89.446525 213.739445 
L 89.763583 213.604716 
L 90.06796 213.49471 
L 90.600618 213.171558 
L 90.727442 213.127608 
L 90.854265 212.856821 
L 91.0445 212.734454 
L 91.184006 212.627086 
L 91.437653 212.441562 
L 92.693205 211.491574 
L 93.542923 210.909997 
L 94.126311 210.545533 
L 94.316546 210.449479 
L 94.468734 210.342111 
L 94.836522 210.012114 
L 95.03944 209.856849 
L 95.559416 209.54475 
L 95.686239 209.452642 
L 95.838427 209.400277 
L 97.702732 208.281073 
L 97.90565 208.095549 
L 98.146614 207.995287 
L 98.362214 207.898972 
L 99.135837 207.53187 
L 99.896778 207.012141 
L 102.496659 205.733465 
L 102.686895 205.633204 
L 102.864447 205.536888 
L 103.194188 205.451626 
L 103.371741 205.329259 
L 103.485882 205.243996 
L 103.650753 205.15058 
L 104.817529 204.643212 
L 105.045811 204.546897 
L 105.248729 204.472688 
L 105.464328 204.398478 
L 105.591152 204.35032 
L 105.730658 204.27611 
L 105.857481 204.218209 
L 106.136493 204.105586 
L 106.275999 204.020323 
L 106.478916 203.946113 
L 106.707198 203.860851 
L 106.884751 203.749536 
L 107.011575 203.653221 
L 107.163763 203.616116 
L 107.392045 203.522419 
L 107.569598 203.456644 
L 107.79788 203.354512 
L 108.22908 203.174805 
L 108.457362 203.089542 
L 108.596868 203.015333 
L 108.964656 202.93007 
L 109.104162 202.85586 
L 109.408538 202.745013 
L 111.069926 202.021862 
L 111.222114 201.962184 
L 111.463078 201.876922 
L 111.615267 201.79166 
L 111.932325 201.713689 
L 112.071831 201.632187 
L 112.287431 201.527718 
L 112.452301 201.472715 
L 112.642537 201.362429 
L 112.98496 201.179823 
L 113.238607 201.105613 
L 113.378113 200.977148 
L 114.570253 200.109805 
L 114.671712 199.980312 
L 115.369241 199.29894 
L 116.574064 198.328436 
L 116.992582 197.961334 
L 117.411099 197.621479 
L 117.512558 197.53923 
L 117.652064 197.421537 
L 117.943758 197.241829 
L 118.298863 196.923913 
L 118.514463 196.75236 
L 119.465639 196.086549 
L 119.820745 195.81651 
L 119.998298 195.675216 
L 120.22658 195.514435 
L 120.404133 195.404149 
L 120.683144 195.192873 
L 121.152391 194.857059 
L 121.659685 194.517599 
L 121.837238 194.414439 
L 122.192344 194.150497 
L 127.2526 191.185178 
L 127.41747 191.101224 
L 127.63307 190.990938 
L 127.823306 190.900052 
L 128.102317 190.726997 
L 128.254505 190.623836 
L 128.419376 190.531448 
L 128.66034 190.353797 
L 128.787164 190.249608 
L 129.002764 190.108034 
L 129.192999 190.002885 
L 129.395916 189.901713 
L 129.535422 189.798553 
L 129.763705 189.656979 
L 132.00848 188.042108 
L 132.160668 187.942223 
L 132.414315 187.755766 
L 132.617233 187.609591 
L 133.048432 187.245876 
L 133.302079 186.966842 
L 133.46695 186.765863 
L 133.63182 186.61698 
L 133.733279 186.524983 
L 134.012291 186.179503 
L 134.27862 185.921372 
L 134.544949 185.565782 
L 134.785914 185.3323 
L 134.976149 185.147617 
L 135.064925 185.04192 
L 135.534172 184.656363 
L 135.622949 184.552739 
L 136.345842 183.845696 
L 136.54876 183.730543 
L 136.865819 183.463624 
L 137.018007 183.360423 
L 143.79038 178.499388 
L 143.980615 178.368337 
L 145.083979 177.645672 
L 145.388356 177.426173 
L 145.895649 177.022496 
L 146.035155 176.898188 
L 146.187343 176.791632 
L 146.415626 176.650109 
L 148.647719 175.083604 
L 148.952095 174.861651 
L 149.434024 174.501519 
L 150.055459 174.130864 
L 150.321788 173.852988 
L 150.613482 173.610184 
L 151.070047 173.35652 
L 151.260282 173.256842 
L 151.551976 173.062868 
L 151.818305 172.851489 
L 151.983176 172.730749 
L 152.135364 172.580371 
L 152.325599 172.459717 
L 152.65534 172.256933 
L 152.947034 172.117146 
L 153.213363 172.00868 
L 153.644563 171.797196 
L 160.163289 168.040384 
L 160.454983 167.837098 
L 160.772042 167.697529 
L 162.940723 166.31321 
L 163.118276 166.20144 
L 164.22164 165.64672 
L 164.424558 165.507639 
L 164.805028 165.337637 
L 165.020628 165.195988 
L 165.705475 164.813584 
L 165.870345 164.717845 
L 166.27618 164.502834 
L 166.796157 164.231104 
L 167.442956 163.868277 
L 167.696603 163.717936 
L 167.95025 163.613602 
L 168.115121 163.540154 
L 168.584368 163.227928 
L 170.448672 162.46483 
L 170.626225 162.346217 
L 174.139235 160.929174 
L 174.443612 160.813071 
L 174.659212 160.702492 
L 175.077729 160.558609 
L 175.2426 160.507817 
L 176.05427 160.134825 
L 176.726434 159.860182 
L 177.119587 159.74471 
L 177.652245 159.53986 
L 178.020033 159.421118 
L 178.172222 159.344751 
L 178.438551 159.227399 
L 178.641468 159.161924 
L 179.757515 158.712106 
L 180.962338 158.282274 
L 188.952216 155.342763 
L 189.484875 155.149594 
L 190.727745 154.826725 
L 190.879933 154.779918 
L 191.222356 154.665632 
L 191.831109 154.539533 
L 192.236944 154.440294 
L 192.680826 154.321324 
L 192.858379 154.256537 
L 193.200802 154.146789 
L 193.416402 154.076269 
L 197.170377 153.135824 
L 197.842541 152.996345 
L 198.793717 152.748467 
L 199.288329 152.596336 
L 199.909764 152.410396 
L 200.061952 152.359794 
L 200.632657 152.194175 
L 203.054986 151.643004 
L 203.879338 151.435502 
L 209.928817 150.032951 
L 210.334653 149.919463 
L 210.879993 149.724047 
L 211.18437 149.602311 
L 211.678981 149.425093 
L 211.99604 149.32335 
L 215.50905 148.333086 
L 216.333403 148.102728 
L 218.387943 147.534112 
L 218.907919 147.393259 
L 220.315659 146.986438 
L 220.899047 146.807329 
L 221.2922 146.694097 
L 221.774129 146.552784 
L 222.129235 146.438811 
L 227.430456 145.213961 
L 227.899703 145.132125 
L 228.368949 145.011288 
L 228.812832 144.908848 
L 238.69238 142.814443 
L 239.326497 142.661144 
L 243.879459 141.679348 
L 244.513577 141.528595 
L 245.122329 141.371768 
L 245.743764 141.216372 
L 246.263741 141.050772 
L 247.861716 140.669772 
L 248.267551 140.511388 
L 250.385503 139.929916 
L 250.664515 139.866527 
L 251.590326 139.637891 
L 251.869338 139.539757 
L 252.287855 139.416105 
L 253.391219 139.167896 
L 253.822419 139.051006 
L 255.788183 138.523638 
L 256.2067 138.385148 
L 257.627123 138.052805 
L 259.047546 137.665824 
L 259.466063 137.542262 
L 259.884581 137.43274 
L 260.062134 137.357077 
L 260.569428 137.223649 
L 260.785027 137.164778 
L 262.497144 136.808942 
L 263.06785 136.673296 
L 263.549779 136.570192 
L 264.183896 136.45551 
L 264.856061 136.316242 
L 265.439449 136.199314 
L 265.743825 136.115582 
L 266.377942 135.95442 
L 267.570083 135.704686 
L 268.140788 135.589934 
L 268.787588 135.442651 
L 274.050762 134.273196 
L 274.621468 134.12858 
L 275.128761 134.021346 
L 275.458502 133.935077 
L 275.965796 133.790307 
L 276.384314 133.683345 
L 276.967702 133.559108 
L 284.767345 131.390864 
L 285.693156 131.072465 
L 286.771156 130.744865 
L 288.914472 130.082252 
L 289.396401 129.950664 
L 289.878331 129.851013 
L 290.449036 129.735564 
L 292.858682 129.135567 
L 293.530846 128.983798 
L 293.733764 128.90905 
L 294.177646 128.79769 
L 294.722987 128.660358 
L 295.686845 128.427911 
L 295.978539 128.343264 
L 297.525786 127.915522 
L 298.007715 127.808106 
L 300.924654 127.136036 
L 301.33049 127.025829 
L 302.814324 126.589617 
L 303.740135 126.33259 
L 304.158653 126.224435 
L 304.691311 126.061253 
L 305.236652 125.921131 
L 307.164369 125.344409 
L 307.316557 125.269938 
L 307.532157 125.175764 
L 307.798486 125.079526 
L 308.35651 124.882233 
L 308.939897 124.698945 
L 309.295003 124.584131 
L 309.485238 124.525123 
L 310.373003 124.215521 
L 310.512508 124.154334 
L 314.329895 122.639951 
L 314.723048 122.525239 
L 314.887918 122.468391 
L 315.839094 122.117987 
L 316.130788 122.003543 
L 316.650764 121.819802 
L 317.018552 121.67663 
L 317.576576 121.554393 
L 317.842905 121.43101 
L 320.759845 120.554206 
L 320.95008 120.47582 
L 321.964667 120.115739 
L 322.421232 119.997523 
L 328.978005 117.765888 
L 329.510664 117.574344 
L 329.929181 117.443012 
L 330.106734 117.363419 
L 330.423793 117.226506 
L 330.84231 117.053899 
L 331.019863 116.974935 
L 331.463745 116.747458 
L 332.909533 115.973805 
L 335.788425 114.75995 
L 336.130849 114.647763 
L 337.107389 114.25915 
L 337.576636 114.10135 
L 337.741507 113.969148 
L 338.020518 113.846314 
L 338.185389 113.758363 
L 340.937458 112.701388 
L 341.102329 112.627314 
L 341.330611 112.517997 
L 341.520846 112.402664 
L 341.888634 112.220767 
L 342.040822 112.083136 
L 342.383246 111.88175 
L 342.852492 111.645069 
L 344.526562 110.891732 
L 344.716797 110.747647 
L 344.970444 110.626076 
L 345.122632 110.524003 
L 345.503103 110.300838 
L 346.264044 109.857482 
L 346.466961 109.739167 
L 347.494231 109.26955 
L 347.938113 109.050809 
L 348.229807 108.830389 
L 348.432725 108.713481 
L 348.876607 108.544935 
L 349.104889 108.437282 
L 349.295124 108.307184 
L 349.739007 108.09422 
L 349.891195 107.978396 
L 350.08143 107.860977 
L 350.233618 107.813603 
L 350.550677 107.684663 
L 350.72823 107.577051 
L 350.994559 107.388678 
L 351.780864 106.941515 
L 352.224746 106.707423 
L 352.465711 106.559572 
L 352.706676 106.440212 
L 353.011052 106.240613 
L 353.290064 106.01667 
L 355.078274 104.8902 
L 355.255827 104.762902 
L 355.458745 104.641642 
L 355.699709 104.481795 
L 355.966039 104.296531 
L 356.130909 104.143024 
L 356.257733 104.048234 
L 356.46065 103.892213 
L 356.790391 103.71065 
L 356.980626 103.54516 
L 357.27232 103.341869 
L 358.160085 102.637051 
L 358.324955 102.52515 
L 360.417542 100.936821 
L 360.557048 100.784696 
L 361.153119 100.41628 
L 361.444812 100.175664 
L 362.269165 99.527115 
L 362.484765 99.377456 
L 362.738412 99.180957 
L 363.118882 98.841396 
L 363.359847 98.67337 
L 363.48667 98.523454 
L 364.196882 97.466624 
L 364.463211 97.165369 
L 364.678811 96.933602 
L 364.805634 96.816342 
L 364.983187 96.590293 
L 365.389022 96.136022 
L 365.553893 95.946209 
L 366.048504 95.413665 
L 366.200692 95.242363 
L 366.289469 95.070527 
L 366.428975 94.89418 
L 367.101139 93.963513 
L 367.227963 93.786237 
L 367.405515 93.582378 
L 367.595751 93.408459 
L 368.179139 92.579858 
L 368.344009 92.320591 
L 368.711797 91.85339 
L 368.838621 91.577801 
L 368.88935 91.443772 
L 369.05422 90.989412 
L 369.219091 90.75865 
L 369.358597 90.244945 
L 369.409326 90.173298 
L 369.586879 89.750306 
L 370.208314 88.775003 
L 370.385867 88.530613 
L 370.652196 87.917962 
L 370.791702 87.610497 
L 370.94389 87.399405 
L 371.108761 87.040889 
L 371.273631 86.654768 
L 371.476549 86.086705 
L 371.641419 85.441983 
L 371.666784 85.399497 
L 372.047254 83.390546 
L 372.592595 79.964605 
L 372.744783 78.984313 
L 373.353536 71.214639 
L 373.581818 44.443636 
L 373.581818 44.443636 
" style="fill:none;stroke:#000000;stroke-linecap:square;stroke-width:1.5;"/>
   </g>
   <g id="patch_3">
    <path d="M 54 252 
L 54 34.56 
" style="fill:none;stroke:#000000;stroke-linecap:square;stroke-linejoin:miter;stroke-width:0.8;"/>
   </g>
   <g id="patch_4">
    <path d="M 388.8 252 
L 388.8 34.56 
" style="fill:none;stroke:#000000;stroke-linecap:square;stroke-linejoin:miter;stroke-width:0.8;"/>
   </g>
   <g id="patch_5">
    <path d="M 54 252 
L 388.8 252 
" style="fill:none;stroke:#000000;stroke-linecap:square;stroke-linejoin:miter;stroke-width:0.8;"/>
   </g>
   <g id="patch_6">
    <path d="M 54 34.56 
L 388.8 34.56 
" style="fill:none;stroke:#000000;stroke-linecap:square;stroke-linejoin:miter;stroke-width:0.8;"/>
   </g>
   <g id="text_16">
    <!-- Average Distance Per 128 Neighbours -->
    <g transform="translate(107.552813 28.56)scale(0.12 -0.12)">
     <defs>
      <path d="M 34.1875 63.1875 
L 20.796875 26.90625 
L 47.609375 26.90625 
z
M 28.609375 72.90625 
L 39.796875 72.90625 
L 67.578125 0 
L 57.328125 0 
L 50.6875 18.703125 
L 17.828125 18.703125 
L 11.1875 0 
L 0.78125 0 
z
" id="DejaVuSans-65"/>
      <path d="M 2.984375 54.6875 
L 12.5 54.6875 
L 29.59375 8.796875 
L 46.6875 54.6875 
L 56.203125 54.6875 
L 35.6875 0 
L 23.484375 0 
z
" id="DejaVuSans-118"/>
      <path d="M 41.109375 46.296875 
Q 39.59375 47.171875 37.8125 47.578125 
Q 36.03125 48 33.890625 48 
Q 26.265625 48 22.1875 43.046875 
Q 18.109375 38.09375 18.109375 28.8125 
L 18.109375 0 
L 9.078125 0 
L 9.078125 54.6875 
L 18.109375 54.6875 
L 18.109375 46.1875 
Q 20.953125 51.171875 25.484375 53.578125 
Q 30.03125 56 36.53125 56 
Q 37.453125 56 38.578125 55.875 
Q 39.703125 55.765625 41.0625 55.515625 
z
" id="DejaVuSans-114"/>
      <path d="M 45.40625 27.984375 
Q 45.40625 37.75 41.375 43.109375 
Q 37.359375 48.484375 30.078125 48.484375 
Q 22.859375 48.484375 18.828125 43.109375 
Q 14.796875 37.75 14.796875 27.984375 
Q 14.796875 18.265625 18.828125 12.890625 
Q 22.859375 7.515625 30.078125 7.515625 
Q 37.359375 7.515625 41.375 12.890625 
Q 45.40625 18.265625 45.40625 27.984375 
z
M 54.390625 6.78125 
Q 54.390625 -7.171875 48.1875 -13.984375 
Q 42 -20.796875 29.203125 -20.796875 
Q 24.46875 -20.796875 20.265625 -20.09375 
Q 16.0625 -19.390625 12.109375 -17.921875 
L 12.109375 -9.1875 
Q 16.0625 -11.328125 19.921875 -12.34375 
Q 23.78125 -13.375 27.78125 -13.375 
Q 36.625 -13.375 41.015625 -8.765625 
Q 45.40625 -4.15625 45.40625 5.171875 
L 45.40625 9.625 
Q 42.625 4.78125 38.28125 2.390625 
Q 33.9375 0 27.875 0 
Q 17.828125 0 11.671875 7.65625 
Q 5.515625 15.328125 5.515625 27.984375 
Q 5.515625 40.671875 11.671875 48.328125 
Q 17.828125 56 27.875 56 
Q 33.9375 56 38.28125 53.609375 
Q 42.625 51.21875 45.40625 46.390625 
L 45.40625 54.6875 
L 54.390625 54.6875 
z
" id="DejaVuSans-103"/>
      <path d="M 31.78125 34.625 
Q 24.75 34.625 20.71875 30.859375 
Q 16.703125 27.09375 16.703125 20.515625 
Q 16.703125 13.921875 20.71875 10.15625 
Q 24.75 6.390625 31.78125 6.390625 
Q 38.8125 6.390625 42.859375 10.171875 
Q 46.921875 13.96875 46.921875 20.515625 
Q 46.921875 27.09375 42.890625 30.859375 
Q 38.875 34.625 31.78125 34.625 
z
M 21.921875 38.8125 
Q 15.578125 40.375 12.03125 44.71875 
Q 8.5 49.078125 8.5 55.328125 
Q 8.5 64.0625 14.71875 69.140625 
Q 20.953125 74.21875 31.78125 74.21875 
Q 42.671875 74.21875 48.875 69.140625 
Q 55.078125 64.0625 55.078125 55.328125 
Q 55.078125 49.078125 51.53125 44.71875 
Q 48 40.375 41.703125 38.8125 
Q 48.828125 37.15625 52.796875 32.3125 
Q 56.78125 27.484375 56.78125 20.515625 
Q 56.78125 9.90625 50.3125 4.234375 
Q 43.84375 -1.421875 31.78125 -1.421875 
Q 19.734375 -1.421875 13.25 4.234375 
Q 6.78125 9.90625 6.78125 20.515625 
Q 6.78125 27.484375 10.78125 32.3125 
Q 14.796875 37.15625 21.921875 38.8125 
z
M 18.3125 54.390625 
Q 18.3125 48.734375 21.84375 45.5625 
Q 25.390625 42.390625 31.78125 42.390625 
Q 38.140625 42.390625 41.71875 45.5625 
Q 45.3125 48.734375 45.3125 54.390625 
Q 45.3125 60.0625 41.71875 63.234375 
Q 38.140625 66.40625 31.78125 66.40625 
Q 25.390625 66.40625 21.84375 63.234375 
Q 18.3125 60.0625 18.3125 54.390625 
z
" id="DejaVuSans-56"/>
      <path d="M 9.8125 72.90625 
L 23.09375 72.90625 
L 55.421875 11.921875 
L 55.421875 72.90625 
L 64.984375 72.90625 
L 64.984375 0 
L 51.703125 0 
L 19.390625 60.984375 
L 19.390625 0 
L 9.8125 0 
z
" id="DejaVuSans-78"/>
      <path d="M 54.890625 33.015625 
L 54.890625 0 
L 45.90625 0 
L 45.90625 32.71875 
Q 45.90625 40.484375 42.875 44.328125 
Q 39.84375 48.1875 33.796875 48.1875 
Q 26.515625 48.1875 22.3125 43.546875 
Q 18.109375 38.921875 18.109375 30.90625 
L 18.109375 0 
L 9.078125 0 
L 9.078125 75.984375 
L 18.109375 75.984375 
L 18.109375 46.1875 
Q 21.34375 51.125 25.703125 53.5625 
Q 30.078125 56 35.796875 56 
Q 45.21875 56 50.046875 50.171875 
Q 54.890625 44.34375 54.890625 33.015625 
z
" id="DejaVuSans-104"/>
      <path d="M 48.6875 27.296875 
Q 48.6875 37.203125 44.609375 42.84375 
Q 40.53125 48.484375 33.40625 48.484375 
Q 26.265625 48.484375 22.1875 42.84375 
Q 18.109375 37.203125 18.109375 27.296875 
Q 18.109375 17.390625 22.1875 11.75 
Q 26.265625 6.109375 33.40625 6.109375 
Q 40.53125 6.109375 44.609375 11.75 
Q 48.6875 17.390625 48.6875 27.296875 
z
M 18.109375 46.390625 
Q 20.953125 51.265625 25.265625 53.625 
Q 29.59375 56 35.59375 56 
Q 45.5625 56 51.78125 48.09375 
Q 58.015625 40.1875 58.015625 27.296875 
Q 58.015625 14.40625 51.78125 6.484375 
Q 45.5625 -1.421875 35.59375 -1.421875 
Q 29.59375 -1.421875 25.265625 0.953125 
Q 20.953125 3.328125 18.109375 8.203125 
L 18.109375 0 
L 9.078125 0 
L 9.078125 75.984375 
L 18.109375 75.984375 
z
" id="DejaVuSans-98"/>
      <path d="M 8.5 21.578125 
L 8.5 54.6875 
L 17.484375 54.6875 
L 17.484375 21.921875 
Q 17.484375 14.15625 20.5 10.265625 
Q 23.53125 6.390625 29.59375 6.390625 
Q 36.859375 6.390625 41.078125 11.03125 
Q 45.3125 15.671875 45.3125 23.6875 
L 45.3125 54.6875 
L 54.296875 54.6875 
L 54.296875 0 
L 45.3125 0 
L 45.3125 8.40625 
Q 42.046875 3.421875 37.71875 1 
Q 33.40625 -1.421875 27.6875 -1.421875 
Q 18.265625 -1.421875 13.375 4.4375 
Q 8.5 10.296875 8.5 21.578125 
z
M 31.109375 56 
z
" id="DejaVuSans-117"/>
     </defs>
     <use xlink:href="#DejaVuSans-65"/>
     <use x="62.533203" xlink:href="#DejaVuSans-118"/>
     <use x="121.712891" xlink:href="#DejaVuSans-101"/>
     <use x="183.236328" xlink:href="#DejaVuSans-114"/>
     <use x="224.349609" xlink:href="#DejaVuSans-97"/>
     <use x="285.628906" xlink:href="#DejaVuSans-103"/>
     <use x="349.105469" xlink:href="#DejaVuSans-101"/>
     <use x="410.628906" xlink:href="#DejaVuSans-32"/>
     <use x="442.416016" xlink:href="#DejaVuSans-68"/>
     <use x="519.417969" xlink:href="#DejaVuSans-105"/>
     <use x="547.201172" xlink:href="#DejaVuSans-115"/>
     <use x="599.300781" xlink:href="#DejaVuSans-116"/>
     <use x="638.509766" xlink:href="#DejaVuSans-97"/>
     <use x="699.789062" xlink:href="#DejaVuSans-110"/>
     <use x="763.167969" xlink:href="#DejaVuSans-99"/>
     <use x="818.148438" xlink:href="#DejaVuSans-101"/>
     <use x="879.671875" xlink:href="#DejaVuSans-32"/>
     <use x="911.458984" xlink:href="#DejaVuSans-80"/>
     <use x="968.136719" xlink:href="#DejaVuSans-101"/>
     <use x="1029.660156" xlink:href="#DejaVuSans-114"/>
     <use x="1070.773438" xlink:href="#DejaVuSans-32"/>
     <use x="1102.560547" xlink:href="#DejaVuSans-49"/>
     <use x="1166.183594" xlink:href="#DejaVuSans-50"/>
     <use x="1229.806641" xlink:href="#DejaVuSans-56"/>
     <use x="1293.429688" xlink:href="#DejaVuSans-32"/>
     <use x="1325.216797" xlink:href="#DejaVuSans-78"/>
     <use x="1400.021484" xlink:href="#DejaVuSans-101"/>
     <use x="1461.544922" xlink:href="#DejaVuSans-105"/>
     <use x="1489.328125" xlink:href="#DejaVuSans-103"/>
     <use x="1552.804688" xlink:href="#DejaVuSans-104"/>
     <use x="1616.183594" xlink:href="#DejaVuSans-98"/>
     <use x="1679.660156" xlink:href="#DejaVuSans-111"/>
     <use x="1740.841797" xlink:href="#DejaVuSans-117"/>
     <use x="1804.220703" xlink:href="#DejaVuSans-114"/>
     <use x="1845.333984" xlink:href="#DejaVuSans-115"/>
    </g>
   </g>
  </g>
 </g>
 <defs>
  <clipPath id="pb1c95f3584">
   <rect height="217.44" width="334.8" x="54" y="34.56"/>
  </clipPath>
 </defs>
</svg>
